<svg width="386" height="184" viewBox="0 0 386 184" fill="none" xmlns="http://www.w3.org/2000/svg">
<path d="M242.571 73.5824C238.051 73.5824 234.518 76.9876 231.319 81.3117C226.924 75.7152 223.248 73.5824 218.849 73.5824C209.882 73.5824 203.011 85.2522 203.011 97.6066C203.011 105.336 206.751 110.211 213.014 110.211C217.522 110.211 220.766 108.087 226.53 98.0105C226.53 98.0105 228.934 93.7672 230.586 90.8447C231.165 91.7798 231.775 92.7876 232.416 93.8681L235.118 98.4145C240.383 107.226 243.318 110.211 248.634 110.211C254.737 110.211 258.132 105.269 258.132 97.3784C258.132 84.4443 251.106 73.5824 242.571 73.5824ZM222.135 95.2819C217.462 102.607 215.846 104.249 213.243 104.249C210.565 104.249 208.973 101.898 208.973 97.7055C208.973 88.7381 213.445 79.5667 218.775 79.5667C221.661 79.5667 224.072 81.233 227.768 86.5225C224.26 91.907 222.135 95.2819 222.135 95.2819ZM248.761 104.249C246.099 104.249 244.827 102.492 239.773 94.3589L236.542 88.9684C235.667 87.5465 234.827 86.2357 234.021 85.0401C236.934 80.5443 239.337 78.3044 242.195 78.3044C248.131 78.3044 252.881 87.0456 252.881 97.7823C252.879 101.876 251.538 104.249 248.761 104.249Z" fill="black"/>
<path d="M288.323 95.9565L276.629 74.7498H269.721V109.569H275.356V82.8891L285.616 101.369H290.888L301.168 82.8891V109.569H306.783V74.7498H300.057L288.323 95.9565Z" fill="black"/>
<path d="M330.873 84.7694C329.09 83.6 326.963 83.0164 324.493 83.0164C322.007 83.0164 319.805 83.596 317.891 84.7573C315.976 85.9186 314.48 87.5263 313.401 89.5824C312.323 91.6384 311.785 94.0014 311.785 96.6715C311.785 99.3072 312.337 101.646 313.439 103.686C314.542 105.726 316.079 107.321 318.052 108.475C320.026 109.626 322.314 110.203 324.917 110.203C329.227 110.203 332.867 108.844 335.836 106.124L332.851 102.468C331.788 103.48 330.653 104.233 329.443 104.732C328.234 105.229 326.79 105.477 325.115 105.477C323.027 105.477 321.298 104.867 319.931 103.649C318.563 102.432 317.705 100.761 317.356 98.6386H336.432V97.0976C336.432 94.262 335.951 91.7919 334.989 89.6854C334.028 87.5768 332.657 85.9388 330.873 84.7694ZM317.358 94.5306C317.689 92.4584 318.481 90.8083 319.733 89.5803C320.985 88.3524 322.538 87.7404 324.396 87.7404C326.303 87.7404 327.844 88.3423 329.021 89.544C330.199 90.7457 330.869 92.4079 331.035 94.5306H317.358Z" fill="black"/>
<path d="M348.669 76.0282H343.248V83.6384H338.076V88.2393H343.248V100.549C343.248 106.95 346.175 110.149 352.028 110.149C352.839 110.151 353.649 110.092 354.453 109.975C355.156 109.874 355.849 109.725 356.529 109.527V104.976C355.932 105.075 355.386 105.154 354.887 105.213C354.391 105.271 353.785 105.3 353.072 105.3C351.462 105.3 350.327 104.886 349.665 104.055C349.002 103.225 348.669 101.842 348.669 99.903V88.2393H356.527V83.6384H348.669V76.0282Z" fill="black"/>
<path d="M379.461 83.6384V86.9709C378.548 85.7248 377.344 84.721 375.955 84.0484C374.545 83.3597 372.954 83.0164 371.18 83.0164C368.825 83.0164 366.741 83.598 364.925 84.7573C363.11 85.9186 361.688 87.5182 360.66 89.5581C359.632 91.598 359.117 93.9449 359.117 96.5967C359.117 99.2324 359.622 101.575 360.633 103.623C361.645 105.671 363.033 107.279 364.8 108.448C366.565 109.618 368.593 110.201 370.881 110.201C372.737 110.201 374.396 109.832 375.856 109.095C377.314 108.357 378.518 107.307 379.463 105.948V109.579H384.783V83.6384H379.461ZM379.362 100.501C378.782 101.961 377.837 103.12 376.526 103.983C375.216 104.845 373.723 105.275 372.049 105.275C369.777 105.275 367.977 104.496 366.652 102.937C365.325 101.377 364.663 99.2647 364.663 96.5947C364.663 93.9408 365.351 91.8363 366.727 90.2771C368.102 88.7179 369.952 87.9383 372.273 87.9383C373.915 87.9383 375.361 88.3645 376.613 89.2188C377.865 90.0731 378.78 91.2385 379.362 92.7129V100.501Z" fill="black"/>
<rect x="172" y="54" width="2" height="75" fill="black"/>
<path fill-rule="evenodd" clip-rule="evenodd" d="M140.863 69.1872C140.133 69.1872 139.432 69.4774 138.916 69.994C138.399 70.5106 138.109 71.2112 138.109 71.9418C138.109 72.6724 138.399 73.373 138.916 73.8896C139.432 74.4062 140.133 74.6964 140.863 74.6964C141.225 74.6961 141.584 74.6244 141.918 74.4853C142.252 74.3462 142.556 74.1426 142.811 73.886C143.066 73.6294 143.268 73.3249 143.406 72.99C143.543 72.6552 143.613 72.2965 143.612 71.9345C143.611 71.2058 143.322 70.507 142.806 69.9918C142.291 69.4766 141.592 69.1872 140.863 69.1872ZM140.863 74.3648C140.545 74.365 140.229 74.3022 139.934 74.1801C139.64 74.0579 139.372 73.8788 139.147 73.653C138.922 73.4272 138.744 73.1591 138.623 72.8642C138.501 72.5693 138.44 72.2534 138.441 71.9345C138.441 71.6168 138.504 71.3023 138.626 71.009C138.748 70.7156 138.927 70.4492 139.152 70.2249C139.377 70.0006 139.644 69.8228 139.937 69.7018C140.231 69.5808 140.546 69.5189 140.863 69.5196C141.504 69.5196 142.118 69.774 142.571 70.2269C143.024 70.6798 143.278 71.294 143.278 71.9345C143.28 72.2528 143.219 72.5683 143.098 72.8629C142.978 73.1575 142.8 73.4254 142.576 73.6512C142.351 73.877 142.084 74.0562 141.791 74.1787C141.497 74.3012 141.182 74.3644 140.863 74.3648Z" fill="black"/>
<path fill-rule="evenodd" clip-rule="evenodd" d="M142.279 71.2137C142.279 70.9542 142.164 70.6802 141.933 70.5505C141.702 70.4138 141.442 70.3993 141.181 70.3993H139.841V73.4782H140.216V72.0573H140.908L141.787 73.4782H142.235L141.304 72.0573C141.853 72.0427 142.279 71.8194 142.279 71.2137ZM140.793 71.7618H140.216V70.6733H141.095C141.477 70.6733 141.896 70.7309 141.896 71.2068C141.897 71.8339 141.224 71.7618 140.793 71.7618ZM48.6363 117.368L30.6856 108.603C30.291 108.399 30.0876 107.877 30.0953 107.535L30.1429 102.696C30.1498 102.355 30.2173 102.005 30.6648 101.684C32.5839 100.461 38.5268 97.1715 44.6662 88.2111C52.8429 76.2769 44.6662 66.2503 31.8869 68.9799C20.5369 71.4041 8.98191 77.5496 3.97012 80.8911C-0.496649 83.8687 0.123587 87.4665 0 90.6928C0.247941 92.0569 0.74459 91.9333 1.86148 90.5684C10.174 82.8761 22.8297 77.0445 25.1871 76.052C27.5445 75.0595 33.1281 71.7096 39.7043 73.198C46.021 74.6288 44.4858 83.217 42.5575 86.8463C40.4481 90.8164 34.4308 96.5858 31.7011 98.0128C30.6641 98.5548 30.2749 98.0128 30.2749 97.1439L30.7094 78.4708C30.7094 77.2303 30.1505 76.6715 28.9101 77.1059L26.925 78.0985C25.5602 78.9052 25.6223 79.2154 25.498 80.2079L25.1971 101.735C25.1871 102.199 24.9706 102.572 24.715 102.682L18.2394 106.325C16.751 107.069 17.1225 108.186 18.2394 108.558L23.4507 111.039C24.692 111.535 25.0643 111.907 25.0643 113.148L24.8778 123.571C29.5311 122.64 29.8404 120.407 29.9648 118.917V115.753C30.0883 115.009 30.5228 114.761 31.1431 114.885L46.2797 122.205C47.6446 122.826 48.3891 122.577 49.3817 120.841C50.3734 119.105 50.4978 118.237 48.6363 117.368ZM75.0892 91.072C72.9859 92.2864 72.0126 94.5593 72.8416 95.994C73.6691 97.4294 76.1716 97.6705 78.2764 96.4545C80.3812 95.2394 81.2916 93.0287 80.4626 91.594C79.6351 90.1593 77.194 89.8561 75.0892 91.072Z" fill="black"/>
<path fill-rule="evenodd" clip-rule="evenodd" d="M67.3278 92.6165C66.756 93.3135 65.6529 95.4398 65.0327 96.7424C64.4124 98.0443 63.1098 100.991 61.8071 100.991C60.43 100.991 60.2558 97.5799 60.2558 96.3386C60.2558 95.0974 59.5112 94.9116 59.1389 94.9738C58.7666 95.036 57.7119 95.4075 57.4018 96.7109C57.0916 98.0136 55.4167 103.659 53.5552 103.659C52.3769 103.659 51.508 100.247 51.4466 99.1927C51.3844 98.1387 50.8877 97.2698 49.833 97.2698C49.0884 97.2698 48.1581 97.6421 47.7858 98.0765C47.4135 98.511 47.3521 99.1927 45.3663 98.7589C43.567 98.6968 41.8298 99.6279 39.7212 103.164C38.4516 105.292 37.4199 109.259 39.3489 110.856C41.1482 112.344 44.3116 109.677 45.2427 108.56C46.173 107.444 46.9798 106.637 47.3521 106.018C47.7236 105.397 48.0967 105.459 48.2824 106.079C48.4682 106.7 49.5229 109.119 50.8885 109.057C52.2533 108.995 53.9905 107.94 56.0377 104.342C56.41 103.597 56.9681 103.659 57.0924 104.28C57.2168 104.901 58.0228 106.948 59.3876 106.948C60.6902 106.948 62.1395 104.878 62.8618 103.66C63.3577 102.823 64.1023 103.226 64.1023 104.032C64.1023 104.838 63.73 123.884 63.73 123.884C63.73 124.752 64.0708 125 64.6911 125H67.39C67.8859 125 68.3204 124.566 68.3204 123.884L68.8784 93.0202C68.8792 92.2749 68.0417 91.7483 67.3278 92.6165ZM46.236 104.776C45.6771 105.707 44.1887 108.188 42.8861 107.754C42.2037 107.382 43.1133 104.9 43.5685 104.032C44.2509 102.729 46.2513 100.654 47.1663 101.178C48.0353 101.674 46.794 103.845 46.236 104.776ZM140.76 85.7478C140.513 85.965 140.109 86.3373 139.209 85.9336C137.658 85.3133 137.534 82.3979 136.728 79.7297C136.003 77.3332 134.257 77.4836 133.626 78.5821L131.734 81.6219C131.393 82.2421 130.649 83.6691 129.903 83.6691C129.035 83.6691 129.424 82.4279 129.47 81.1874C129.5 80.3499 128.973 79.296 128.105 79.296C127.112 79.296 126.058 80.8151 125.252 82.553C124.688 83.7681 123.235 88.4153 121.404 88.4153C120.226 88.4153 120.102 85.0032 120.04 83.9485C119.979 82.8938 119.606 81.5912 118.552 81.5912C117.838 81.5912 117.374 81.9627 117 82.3972C116.629 82.8316 116.568 83.2032 115.264 83.0174C113.465 82.9552 110.487 84.6309 108.378 88.1666C107.108 90.2952 105.58 94.7589 107.51 96.3555C109.309 97.844 112.534 94.3697 113.465 93.2536C114.394 92.1367 115.201 91.3299 115.574 90.7105C115.946 90.0895 116.318 90.1516 116.504 90.7726C116.69 91.3929 117.745 93.8124 119.11 93.7502C120.475 93.6881 121.591 93.3779 123.639 89.7793C124.01 89.0355 124.693 88.9426 124.817 89.5629C124.941 90.1831 125.066 91.8274 126.368 91.8274C128.601 91.8274 131.132 86.3934 131.766 85.1268C132.324 84.0099 133.223 84.32 133.533 85.1575C133.977 86.3565 134.37 90.2138 136.79 90.2138C139.209 90.2138 140.853 87.6392 141.349 86.8325C141.908 86.0272 141.617 84.9979 140.76 85.7478ZM114.457 89.47C113.898 90.4004 112.657 92.4476 111.355 92.0131C110.672 91.6408 111.52 89.8423 111.976 88.9733C112.658 87.6707 114.658 85.5659 115.574 86.0886C116.442 86.5853 115.015 88.5389 114.457 89.47ZM102.472 86.2184C102.472 86.2184 97.199 82.3718 95.7098 80.6355C94.7096 79.4687 95.3997 78.5882 96.0199 78.0924C99.7413 75.6106 105.573 71.7641 107.869 65.8089C110.08 60.0687 106.628 55.0768 104.146 54.2701C100.745 53.1655 93.5374 55.387 89.9388 62.0867C87.6091 66.4261 86.5283 67.8562 86.2174 79.6429C86.1575 81.8752 86.093 84.4198 86.093 87.2117C86.093 90.0035 85.7829 97.5714 85.472 98.9977C84.2937 102.348 87.8302 100.363 89.4422 99.0606C91.0557 97.7572 90.9306 95.8036 90.9306 94.9661C90.9306 93.9107 90.9935 75.3005 91.5516 71.1439C91.8993 68.5585 92.2969 63.7617 95.0251 59.605C97.7555 55.4484 100.547 57.1241 101.292 57.8057C102.036 58.4881 103.091 60.2253 102.532 63.7617C101.665 69.2494 95.3352 75.2383 93.7216 77.0991C92.1096 78.9598 92.4819 80.5733 93.4131 81.8759C94.074 82.8025 95.7082 84.6056 97.3832 86.2805C99.0581 87.9555 98.8716 89.4447 98.6244 90.5616C97.7547 93.9107 88.6976 102.969 88.6976 102.969C86.7739 105.016 88.759 108.366 89.4414 109.482C90.1253 110.599 90.9928 110.227 91.5508 109.296C93.7846 105.14 103.4 95.0897 103.4 95.0897C106.195 91.5533 105.015 88.1413 102.472 86.2184Z" fill="black"/>
</svg>
